#N canvas 214 149 1199 687 10;
#X declare -lib mrpeach;
#X obj 80 38 import mrpeach;
#X obj 80 77 udpreceive 9001;
#X obj 80 116 unpackOSC;
#X obj 87 673 dac~ 1 2;
#X obj 123 514 bng 15 250 50 0 empty empty empty 17 7 0 10 -262144
-1 -1;
#X obj 207 514 bng 15 250 50 0 empty empty empty 17 7 0 10 -262144
-1 -1;
#X obj 292 514 bng 15 250 50 0 empty empty empty 17 7 0 10 -262144
-1 -1;
#X obj 374 514 bng 15 250 50 0 empty empty empty 17 7 0 10 -262144
-1 -1;
#X obj 82 279 bng 15 250 50 0 empty empty empty 17 7 0 10 -262144 -1
-1;
#X obj 166 279 bng 15 250 50 0 empty empty empty 17 7 0 10 -262144
-1 -1;
#X obj 247 280 bng 15 250 50 0 empty empty empty 17 7 0 10 -262144
-1 -1;
#X obj 330 279 bng 15 250 50 0 empty empty empty 17 7 0 10 -262144
-1 -1;
#X obj 84 489 readsf~;
#X obj 168 489 readsf~;
#X obj 253 489 readsf~;
#X obj 335 489 readsf~;
#X obj 85 593 *~ 1;
#X obj 167 593 *~ 1;
#X obj 253 593 *~ 1;
#X obj 334 593 *~ 1;
#X obj 647 216 udpsend;
#X obj 784 156 packOSC;
#X floatatom 106 567 5 0 0 0 - - -;
#X obj 82 250 t b f;
#X obj 165 249 t b f;
#X floatatom 188 565 5 0 0 0 - - -;
#X floatatom 274 563 5 0 0 0 - - -;
#X obj 245 249 t b f;
#X obj 329 249 t b f;
#X floatatom 355 558 5 0 0 0 - - -;
#X obj 7 38 tgl 15 0 empty empty empty 17 7 0 10 -262144 -1 -1 0 1
;
#X msg 7 63 \; pd dsp \$1;
#X msg 647 67 connect 192.168.0.17 9001;
#X msg 656 90 disconnect;
#X obj 82 201 routeOSC /kick /snare /hihat /clap /wek/outputs;
#X msg 81 331 open samples/kick.wav \, start;
#X obj 822 293 print \$1;
#X obj 723 267 unpack f;
#X floatatom 723 451 5 0 0 0 - - -;
#X obj 691 500 spigot;
#X obj 696 378 t f f;
#X floatatom 691 531 5 0 0 0 - - -;
#X floatatom 796 451 5 0 0 0 - - -;
#X obj 764 500 spigot;
#X obj 769 378 t f f;
#X floatatom 764 531 5 0 0 0 - - -;
#X floatatom 883 451 5 0 0 0 - - -;
#X obj 851 500 spigot;
#X obj 856 378 t f f;
#X floatatom 851 531 5 0 0 0 - - -;
#X floatatom 960 451 5 0 0 0 - - -;
#X obj 928 500 spigot;
#X obj 933 378 t f f;
#X floatatom 928 531 5 0 0 0 - - -;
#X obj 960 420 == 4;
#X floatatom 1035 451 5 0 0 0 - - -;
#X obj 1003 500 spigot;
#X obj 1008 378 t f f;
#X floatatom 1003 531 5 0 0 0 - - -;
#X obj 1035 420 == 5;
#X obj 883 420 == 3;
#X obj 796 420 == 2;
#X obj 723 420 == 1;
#X floatatom 689 595 5 0 0 0 - - -;
#X obj 714 661 !=;
#X floatatom 714 692 5 0 0 0 - - -;
#X obj 1111 977 print;
#X obj 677 779 spigot;
#X obj 689 625 t f f f;
#X floatatom 677 810 5 0 0 0 - - -;
#X floatatom 677 871 5 0 0 0 - - -;
#X floatatom 763 871 5 0 0 0 - - -;
#X floatatom 837 871 5 0 0 0 - - -;
#X floatatom 907 871 5 0 0 0 - - -;
#X obj 677 932 spigot;
#X obj 763 932 spigot;
#X obj 837 932 spigot;
#X obj 907 932 spigot;
#X obj 677 840 == 2;
#X obj 763 840 == 3;
#X obj 837 840 == 4;
#X obj 907 840 == 5;
#X msg 165 358 open samples/snare.wav \, start;
#X msg 250 386 open samples/hihat.wav \, start;
#X msg 333 414 open samples/clap.wav \, start;
#X floatatom 677 963 5 0 0 0 - - -;
#X floatatom 763 963 5 0 0 0 - - -;
#X floatatom 837 963 5 0 0 0 - - -;
#X floatatom 907 963 5 0 0 0 - - -;
#X obj 907 901 t f f;
#X obj 677 901 t f f;
#X obj 763 901 t f f;
#X obj 837 901 t f f;
#X msg 622 44 connect localhost 12000;
#X msg 853 49 sendtyped /kick f 1;
#X msg 854 74 sendtyped /snare f 0.5;
#X msg 856 97 sendtyped /hihat f 1;
#X msg 856 120 sendtyped /clap f 0.7;
#X connect 1 0 2 0;
#X connect 2 0 34 0;
#X connect 8 0 35 0;
#X connect 9 0 82 0;
#X connect 10 0 83 0;
#X connect 11 0 84 0;
#X connect 12 0 16 0;
#X connect 12 1 4 0;
#X connect 13 0 17 0;
#X connect 13 1 5 0;
#X connect 14 0 18 0;
#X connect 14 1 6 0;
#X connect 15 0 19 0;
#X connect 15 1 7 0;
#X connect 16 0 3 0;
#X connect 16 0 3 1;
#X connect 17 0 3 0;
#X connect 17 0 3 1;
#X connect 18 0 3 0;
#X connect 18 0 3 1;
#X connect 19 0 3 0;
#X connect 19 0 3 1;
#X connect 21 0 20 0;
#X connect 22 0 16 1;
#X connect 23 0 8 0;
#X connect 23 1 22 0;
#X connect 24 0 9 0;
#X connect 24 1 25 0;
#X connect 25 0 17 1;
#X connect 26 0 18 1;
#X connect 27 0 10 0;
#X connect 27 1 26 0;
#X connect 28 0 11 0;
#X connect 28 1 29 0;
#X connect 29 0 19 1;
#X connect 30 0 31 0;
#X connect 32 0 20 0;
#X connect 33 0 20 0;
#X connect 34 0 23 0;
#X connect 34 1 24 0;
#X connect 34 2 27 0;
#X connect 34 3 28 0;
#X connect 34 4 37 0;
#X connect 35 0 12 0;
#X connect 37 0 36 0;
#X connect 37 0 40 0;
#X connect 37 0 44 0;
#X connect 37 0 48 0;
#X connect 37 0 52 0;
#X connect 37 0 57 0;
#X connect 38 0 39 1;
#X connect 39 0 41 0;
#X connect 40 0 39 0;
#X connect 40 1 62 0;
#X connect 41 0 63 0;
#X connect 42 0 43 1;
#X connect 43 0 45 0;
#X connect 44 0 43 0;
#X connect 44 1 61 0;
#X connect 45 0 63 0;
#X connect 46 0 47 1;
#X connect 47 0 49 0;
#X connect 48 0 47 0;
#X connect 48 1 60 0;
#X connect 49 0 63 0;
#X connect 50 0 51 1;
#X connect 51 0 53 0;
#X connect 52 0 51 0;
#X connect 52 1 54 0;
#X connect 53 0 63 0;
#X connect 54 0 50 0;
#X connect 55 0 56 1;
#X connect 56 0 58 0;
#X connect 57 0 56 0;
#X connect 57 1 59 0;
#X connect 58 0 63 0;
#X connect 59 0 55 0;
#X connect 60 0 46 0;
#X connect 61 0 42 0;
#X connect 62 0 38 0;
#X connect 63 0 68 0;
#X connect 64 0 65 0;
#X connect 65 0 67 1;
#X connect 67 0 69 0;
#X connect 68 0 64 1;
#X connect 68 1 67 0;
#X connect 68 2 64 0;
#X connect 69 0 78 0;
#X connect 69 0 79 0;
#X connect 69 0 80 0;
#X connect 69 0 81 0;
#X connect 70 0 90 0;
#X connect 71 0 91 0;
#X connect 72 0 92 0;
#X connect 73 0 89 0;
#X connect 74 0 23 0;
#X connect 74 0 85 0;
#X connect 75 0 24 0;
#X connect 75 0 86 0;
#X connect 76 0 27 0;
#X connect 76 0 87 0;
#X connect 77 0 28 0;
#X connect 77 0 88 0;
#X connect 78 0 70 0;
#X connect 79 0 71 0;
#X connect 80 0 72 0;
#X connect 81 0 73 0;
#X connect 82 0 13 0;
#X connect 83 0 14 0;
#X connect 84 0 15 0;
#X connect 89 0 77 0;
#X connect 89 1 77 1;
#X connect 90 0 74 0;
#X connect 90 1 74 1;
#X connect 91 0 75 0;
#X connect 91 1 75 1;
#X connect 92 0 76 0;
#X connect 92 1 76 1;
#X connect 93 0 20 0;
#X connect 94 0 21 0;
#X connect 95 0 21 0;
#X connect 96 0 21 0;
#X connect 97 0 21 0;
